<?xml version="1.0" encoding="UTF-8" standalone="no"?>
<!-- Created with Inkscape (http://www.inkscape.org/) -->

<svg
   width="83.292671"
   height="637.68921"
   viewBox="0 0 22.037852 168.72193"
   version="1.1"
   id="svg1"
   sodipodi:docname="circuitCircle.svg"
   inkscape:export-filename="circuitCircle.png"
   inkscape:export-xdpi="96"
   inkscape:export-ydpi="96"
   inkscape:version="1.4.2 (f4327f4, 2025-05-13)"
   xmlns:inkscape="http://www.inkscape.org/namespaces/inkscape"
   xmlns:sodipodi="http://sodipodi.sourceforge.net/DTD/sodipodi-0.dtd"
   xmlns="http://www.w3.org/2000/svg"
   xmlns:svg="http://www.w3.org/2000/svg">
  <sodipodi:namedview
     id="namedview1"
     pagecolor="#ffffff"
     bordercolor="#000000"
     borderopacity="0.25"
     inkscape:showpageshadow="2"
     inkscape:pageopacity="0.0"
     inkscape:pagecheckerboard="0"
     inkscape:deskcolor="#d1d1d1"
     inkscape:zoom="1.2655068"
     inkscape:cx="41.485356"
     inkscape:cy="318.84459"
     inkscape:window-width="1920"
     inkscape:window-height="1009"
     inkscape:window-x="1912"
     inkscape:window-y="-8"
     inkscape:window-maximized="1"
     inkscape:current-layer="layer1" />
  <defs
     id="defs1" />
  <g
     id="layer1"
     transform="translate(-0.65239992,-1.1100262)">
    <path
       fill-rule="nonzero"
       fill="#cdccca"
       fill-opacity="1"
       d="m 14.870603,1.8761781 c 3.888903,0 7.051462,3.1951923 7.051462,7.1228825 0,3.8307464 -3.013618,6.9575994 -6.775,7.1065424 v -2.504522 c 2.397423,-0.146906 4.299015,-2.149521 4.299015,-4.6020204 0,-2.5514796 -2.047483,-4.6203785 -4.575477,-4.6203785 -2.528005,0 -4.578549,2.0688989 -4.578549,4.6203785 0,2.4596284 1.909777,4.4652994 4.314327,4.6040564 v 2.502486 C 10.840892,15.96379 7.81608,12.835944 7.81608,8.9990606 c 0,-3.9276902 3.163576,-7.1228825 7.054523,-7.1228825 z m 0,-0.7661519 c -4.312292,0 -7.8216926,3.5379692 -7.8216926,7.8890344 0,4.2592404 3.3686126,7.7298654 7.5574706,7.8737154 V 123.41798 L 2.4183181,135.60095 v 30.18601 c -0.9946721,0.13364 -1.76591825,0.97631 -1.76591825,2.00567 0,1.12525 0.91204355,2.03934 2.03526315,2.03934 1.1252491,0 2.0362463,-0.91409 2.0362463,-2.03934 0,-1.02936 -0.7671695,-1.87203 -1.7648976,-2.00567 V 135.82641 L 15.147065,123.64243 V 16.870739 c 4.183744,-0.148942 7.543187,-3.617557 7.543187,-7.8716784 0,-4.3510652 -3.510427,-7.8890344 -7.819649,-7.8890344"
       id="path326"
       style="fill:#486299;fill-opacity:1;stroke-width:0.261165" />
  </g>
</svg>
