<?xml version="1.0" encoding="UTF-8" standalone="no"?>
<!-- Created with Inkscape (http://www.inkscape.org/) -->

<svg
   width="29.732004mm"
   height="260.95685mm"
   viewBox="0 0 29.732004 260.95685"
   version="1.1"
   id="svg1"
   xmlns="http://www.w3.org/2000/svg"
   xmlns:svg="http://www.w3.org/2000/svg">
  <defs
     id="defs1">
    <clipPath
       id="clip-4">
      <path
         clip-rule="nonzero"
         d="M 270,671 H 422 V 1688.5781 H 270 Z m 0,0"
         id="path44" />
    </clipPath>
  </defs>
  <g
     id="layer1"
     transform="translate(-10.591438,-7.8066571)">
    <g
       clip-path="url(#clip-4)"
       id="g206"
       transform="matrix(0.26458333,0,0,0.26458333,-67.064044,-195.14211)"
       style="fill:#000000">
      <path
         fill-rule="nonzero"
         fill="#7a7b7c"
         fill-opacity="1"
         d="m 364.5625,1232.6094 -60.24609,60.2109 v 408.75 h 2.07421 v -407.8906 l 61.10547,-61.0703 30.69532,-30.6797 V 804.9375 h -2.07813 v 396.1328 l -30.08203,30.0703"
         id="path206"
         style="fill:#000000" />
    </g>
    <path
       fill-rule="nonzero"
       fill="#464647"
       fill-opacity="1"
       d="m 40.310756,18.15179 -2.30374,-2.3027 -2.30373,2.3027 v -1.954403 l 2.30373,-2.3027 2.30374,2.3027 v 1.954403"
       id="path236"
       style="fill:#000000;stroke-width:0.264583" />
    <path
       fill-rule="nonzero"
       fill="#464647"
       fill-opacity="1"
       d="m 40.304629,15.252672 -2.30374,-2.3027 -2.30373,2.3027 v -1.954403 l 2.30373,-2.3027 2.30374,2.3027 v 1.954403"
       id="path236-6"
       style="fill:#000000;stroke-width:0.264583" />
    <path
       fill-rule="nonzero"
       fill="#464647"
       fill-opacity="1"
       d="m 39.830045,11.045019 v -0.958984 l -1.82399,-1.6490197 -1.823991,1.6490197 v 0.958984 l 1.823991,-1.6515387 z m 0.493394,-1.1430497 v 2.2197027 l -2.317384,-2.096994 -2.317384,2.096994 V 9.9019693 l 2.317384,-2.095312 2.317384,2.095312"
       id="path237"
       style="fill:#000000;stroke-width:0.226232" />
    <path
       fill-rule="nonzero"
       fill="#5e5f61"
       fill-opacity="1"
       d="m 13.723476,259.61881 c 0.751377,0 1.36116,0.6077 1.36116,1.36012 0,0.75136 -0.609783,1.35908 -1.36116,1.35908 -0.751374,0 -1.361156,-0.60772 -1.361156,-1.35908 0,-0.75242 0.609782,-1.36012 1.361156,-1.36012"
       id="path215"
       style="fill:#000000;stroke-width:0.264583" />
    <path
       fill-rule="nonzero"
       fill="#5e5f61"
       fill-opacity="1"
       d="m 13.767316,253.37047 c 1.110923,0 2.012497,0.89849 2.012497,2.01096 0,1.1109 -0.901574,2.00942 -2.012497,2.00942 -1.110919,0 -2.012491,-0.89852 -2.012491,-2.00942 0,-1.11247 0.901572,-2.01096 2.012491,-2.01096"
       id="path215-2"
       style="fill:#000000;stroke-width:0.39119" />
    <path
       fill-rule="nonzero"
       fill="#5e5f61"
       fill-opacity="1"
       d="m 13.785875,262.90336 c 0.751377,0 1.36116,0.6077 1.36116,1.36012 0,0.75136 -0.609783,1.35908 -1.36116,1.35908 -0.751374,0 -1.361156,-0.60772 -1.361156,-1.35908 0,-0.75242 0.609782,-1.36012 1.361156,-1.36012"
       id="path215-6"
       style="fill:#000000;stroke-width:0.264583" />
    <path
       fill-rule="nonzero"
       fill="#5e5f61"
       fill-opacity="1"
       d="m 13.796571,266.0443 c 0.751377,0 1.36116,0.6077 1.36116,1.36012 0,0.75136 -0.609783,1.35908 -1.36116,1.35908 -0.751374,0 -1.361156,-0.60772 -1.361156,-1.35908 0,-0.75242 0.609782,-1.36012 1.361156,-1.36012"
       id="path215-6-1"
       style="fill:#000000;stroke-width:0.264583" />
    <path
       fill-rule="nonzero"
       fill="#5e5f61"
       fill-opacity="1"
       d="m 13.828709,145.85991 c 0.75138,0 1.36116,0.6077 1.36116,1.36012 0,0.75136 -0.60978,1.35908 -1.36116,1.35908 -0.75137,0 -1.36115,-0.60772 -1.36115,-1.35908 0,-0.75242 0.60978,-1.36012 1.36115,-1.36012"
       id="path215-6-1-4"
       style="fill:#000000;stroke-width:0.264583" />
    <path
       fill-rule="nonzero"
       fill="#5e5f61"
       fill-opacity="1"
       d="m 26.927801,90.034746 v 7.852747 h 7.856887 v -7.852747 z m -0.412377,8.268227 v -8.681637 h 8.683704 v 8.681637 h -8.683704"
       id="path231"
       style="fill:#000000;stroke-width:0.264583" />
    <path
       fill-rule="nonzero"
       fill="#5e5f61"
       fill-opacity="1"
       d="m 31.390744,99.533643 v 3.658237 h 3.660174 v -3.658237 z m -0.192108,3.851797 v -4.044387 h 4.045351 v 4.044387 h -4.045351"
       id="path231-3"
       style="fill:#000000;stroke-width:0.123257" />
    <path
       fill-rule="nonzero"
       fill="#5e5f61"
       fill-opacity="1"
       d="m 31.393473,104.51522 v 3.65825 h 3.660173 v -3.65825 z m -0.192109,3.8518 v -4.04438 h 4.045351 v 4.04438 h -4.045351"
       id="path231-3-4"
       style="fill:#000000;stroke-width:0.123257" />
    <path
       fill-rule="nonzero"
       fill="#5e5f61"
       fill-opacity="1"
       d="m 31.399689,109.36396 v 3.65825 h 3.660172 v -3.65825 z m -0.192106,3.8518 v -4.04439 h 4.045344 v 4.04439 h -4.045344"
       id="path231-3-4-7"
       style="fill:#000000;stroke-width:0.123257" />
    <path
       fill-rule="nonzero"
       fill="#909190"
       fill-opacity="1"
       d="m 10.939244,255.35118 c 0,1.57083 1.277043,2.84795 2.847779,2.84795 1.571936,0 2.848978,-1.27712 2.848978,-2.84795 0,-1.56961 -1.277042,-2.84673 -2.848978,-2.84673 -1.570736,0 -2.847779,1.27712 -2.847779,2.84673 0,1.57083 0,-1.56961 0,0 z m 6.043534,9e-5 c 0,1.76114 -1.43351,3.19464 -3.19567,3.19464 -1.76114,0 -3.195671,-1.4335 -3.195671,-3.19464 0,-1.76113 1.434531,-3.1936 3.195671,-3.1936 1.76216,0 3.19567,1.43247 3.19567,3.1936 0,1.76114 0,-1.76113 0,0"
       id="path419"
       style="fill:#000000;stroke-width:0.264583" />
  </g>
</svg>
