<?xml version="1.0" encoding="UTF-8" standalone="no"?>
<!-- Uploaded to: SVG Repo, www.svgrepo.com, Transformed by: SVG Repo Mixer Tools -->

<svg
   fill="currentColor"
   width="800"
   height="398.81573"
   viewBox="0 0 32 15.952629"
   version="1.1"
   id="svg1"
   xmlns="http://www.w3.org/2000/svg"
   xmlns:svg="http://www.w3.org/2000/svg">
  <defs
     id="defs1" />
  <g
     id="g1">
    <g
       id="SVGRepo_iconCarrier"
       transform="matrix(0.41288295,0,0,0.41288295,9.5676258,-2.4772977)">
      <path
         d="M 21.300781,6 C 21.143781,6 21,6.1257812 21,6.3007812 v 5.4960938 l -1.246094,-0.726563 c -0.078,-0.046 -0.165906,-0.06836 -0.253906,-0.06836 -0.088,0 -0.175906,0.02236 -0.253906,0.06836 l -2.994141,1.746094 C 16.095953,12.906406 16,13.072953 16,13.251953 v 3.496094 c 0,0.18 0.09595,0.345547 0.251953,0.435547 l 2.994141,1.746094 c 0.078,0.046 0.165906,0.06836 0.253906,0.06836 0.088,0 0.175906,-0.02236 0.253906,-0.06836 l 2.994141,-1.746094 C 22.904047,17.093594 23,16.927047 23,16.748047 V 15 13.251953 7.2304688 c 0,-0.178 -0.09505,-0.3416407 -0.248047,-0.4316407 L 21.449219,6.0410156 C 21.400219,6.0130156 21.350781,6 21.300781,6 Z M 11.5,11.001953 c -0.08775,0 -0.175406,0.02286 -0.253906,0.06836 L 8.2519531,12.816406 C 8.0959531,12.906406 8,13.072953 8,13.251953 v 3.496094 c 0,0.18 0.095953,0.345547 0.2519531,0.435547 l 2.9941409,1.746094 c 0.157,0.091 0.350812,0.091 0.507812,0 l 2.994141,-1.746094 C 14.904047,17.093594 15,16.927047 15,16.748047 v -3.496094 c 0,-0.18 -0.09595,-0.345547 -0.251953,-0.435547 l -2.994141,-1.746094 c -0.0785,-0.0455 -0.166156,-0.06836 -0.253906,-0.06836 z m 16,0 c -0.088,0 -0.175906,0.02236 -0.253906,0.06836 l -2.994141,1.746094 C 24.095953,12.906406 24,13.072953 24,13.251953 v 3.496094 c 0,0.18 0.09595,0.345547 0.251953,0.435547 l 2.904297,1.755859 c 0.156,0.095 0.351766,0.09591 0.509766,0.0039 l 1.427734,-0.830078 c 0.148,-0.085 0.149,-0.299719 0,-0.386719 L 26,15.904297 v -1.794922 l 1.5,-0.873047 1.5,0.873047 v 1.25 c 0,0.167 0.140375,0.192719 0.234375,0.136719 0.378,-0.222 1.517578,-0.882813 1.517578,-0.882813 C 30.904953,14.524281 31,14.359641 31,14.181641 v -0.929688 c 0,-0.18 -0.09595,-0.345547 -0.251953,-0.435547 l -2.994141,-1.746094 c -0.079,-0.046 -0.165906,-0.06836 -0.253906,-0.06836 z m -24,0.002 c -0.088,0 -0.1759063,0.02236 -0.2539062,0.06836 l -2.99414068,1.74414 C 0.09595312,12.907406 0,13.073906 0,13.253906 v 4.462891 c 0,0.218 0.23582812,0.353141 0.42382812,0.244141 L 1.7519531,17.1875 C 1.9049531,17.0975 2,16.933859 2,16.755859 v -2.642578 l 1.5,-0.875 1.5,0.875 v 2.642578 c 0,0.178 0.095047,0.341641 0.2480469,0.431641 l 1.328125,0.773438 C 6.7641719,18.070938 7,17.934797 7,17.716797 v -4.462891 c 0,-0.18 -0.095953,-0.3465 -0.2519531,-0.4375 L 3.7539062,11.072266 C 3.6759063,11.026266 3.588,11.003906 3.5,11.003906 Z m 16,2.232422 1.5,0.875 V 15 15.888672 l -1.5,0.875 -1.5,-0.875 v -1.777344 z m 8,0.767578 -0.857422,0.5 V 15.502 L 27.5,16 28.357422,15.501953 v -0.998047 z m -12.09375,3.994141 c -0.102875,0 -0.206875,0.02517 -0.296875,0.07617 l -2.8125,1.625 C 12.111875,19.801219 12,20.001938 12,20.210938 v 3.246093 c 0,0.209 0.116875,0.405719 0.296875,0.511719 l 0.740234,0.421875 c 0.355,0.175 0.485485,0.175781 0.646485,0.175781 0.53,0 0.832031,-0.316953 0.832031,-0.876953 v -3.207031 c 0,-0.049 -0.03803,-0.08398 -0.08203,-0.08398 h -0.355469 c -0.049,0 -0.08398,0.03998 -0.08398,0.08398 v 3.207031 c 0,0.243 -0.256782,0.492203 -0.675782,0.283203 l -0.769531,-0.443359 c -0.025,-0.015 -0.04297,-0.04522 -0.04297,-0.07422 v -3.246094 c 0,-0.029 0.01397,-0.06312 0.04297,-0.07813 l 2.8125,-1.621093 c 0.03,-0.015 0.06389,-0.015 0.08789,0 l 2.814453,1.621093 c 0.029,0.015 0.04297,0.04412 0.04297,0.07813 v 3.246094 c 0,0.034 -0.01897,0.06312 -0.04297,0.07813 l -2.814453,1.626953 c -0.025,0.015 -0.06389,0.015 -0.08789,0 l -0.71875,-0.427734 c -0.019,-0.01 -0.04936,-0.01586 -0.06836,-0.0059 -0.199,0.117001 -0.238828,0.132313 -0.423828,0.195313 -0.049,0.015 -0.11561,0.04505 0.02539,0.123047 l 0.933594,0.554687 c 0.093,0.049 0.194875,0.07813 0.296875,0.07813 0.107,0 0.210969,-0.02903 0.292969,-0.08203 l 2.8125,-1.626953 c 0.185,-0.102 0.296875,-0.302719 0.296875,-0.511719 v -3.246093 c 0,-0.209 -0.116875,-0.404719 -0.296875,-0.511719 l -2.8125,-1.625 c -0.0875,-0.051 -0.190094,-0.07617 -0.292969,-0.07617 z m 4.386719,1.498047 c -0.287,0 -0.539063,0.232062 -0.539063,0.539062 0,0.297 0.242063,0.541016 0.539063,0.541016 0.297,0 0.539062,-0.244016 0.539062,-0.541016 0,-0.307 -0.247062,-0.544062 -0.539062,-0.539062 z m -0.0059,0.08594 c 0.254,0 0.458985,0.200125 0.458985,0.453125 0,0.248 -0.205985,0.452985 -0.458985,0.458985 -0.249,0 -0.451171,-0.205985 -0.451171,-0.458985 0,-0.253 0.203171,-0.453125 0.451171,-0.453125 z m -0.197265,0.146485 v 0.607422 h 0.115234 V 20.09375 H 19.8125 c 0.044,0 0.05445,0.01873 0.06445,0.05273 0,0.005 0.01844,0.162407 0.02344,0.191407 h 0.125 c -0.014,-0.029 -0.0243,-0.11211 -0.0293,-0.16211 -0.014,-0.078 -0.01856,-0.131719 -0.101563,-0.136719 0.044,-0.015 0.117188,-0.03839 0.117188,-0.15039 0,-0.161 -0.139891,-0.160156 -0.212891,-0.160156 z m 0.115234,0.09766 h 0.09766 c 0.03,0 0.08789,-9.69e-4 0.08789,0.08203 0,0.034 -0.01475,0.08889 -0.09375,0.08789 h -0.0918 z m -3.544922,0.496094 c -0.803,0 -1.279297,0.34225 -1.279297,0.90625 0,0.618 0.477094,0.783328 1.246094,0.861328 0.92,0.092 0.992188,0.224297 0.992188,0.404297 0,0.316 -0.253657,0.447265 -0.847657,0.447265 -0.745,0 -0.90889,-0.184687 -0.96289,-0.554687 -0.005,-0.039 -0.03998,-0.06836 -0.08399,-0.06836 H 14.85933 c -0.044,0 -0.08203,0.03498 -0.08203,0.08398 0,0.472 0.257281,1.037109 1.488281,1.037109 0.903,-0.001 1.414063,-0.350844 1.414063,-0.964844 0,-0.608 -0.409391,-0.769718 -1.275391,-0.886718 -0.876,-0.117 -0.962891,-0.17586 -0.962891,-0.38086 0,-0.17 0.07175,-0.392578 0.71875,-0.392578 0.579,0 0.794813,0.126625 0.882813,0.515625 0.01,0.039 0.03717,0.0625 0.07617,0.0625 h 0.365234 c 0.024,0 0.04459,-0.0094 0.05859,-0.02344 0.015,-0.019 0.02453,-0.0385 0.01953,-0.0625 -0.058,-0.672 -0.501344,-0.984375 -1.402344,-0.984375 z"
         id="path1" />
    </g>
    <g
       id="SVGRepo_iconCarrier-1"
       transform="matrix(0.0625,0,0,0.0625,0,6.6848125)">
      <g
         id="g2">
        <path
           d="M 3.3322486,115.62903 V 58.647576 H 74.475757 V 55.315327 H 3.3322486 V 3.3322486 H 78.974292 V 0 H 0 v 118.96128 h 79.640742 v -3.33225 z M 143.78653,33.322486 114.29613,72.143183 85.472177,33.322486 H 81.140254 L 112.29678,74.642369 78.14123,118.96128 h 3.998698 l 32.156202,-41.819725 32.32281,41.819725 h 4.16531 L 116.46209,74.642369 147.78523,33.322486 Z M 160.781,148.28506 V 94.969086 h 0.33322 c 1.99936,7.775284 5.94248,14.023194 11.82948,18.743894 5.887,4.72071 13.38449,7.08103 22.49268,7.08103 5.887,0 11.10747,-1.19404 15.66157,-3.58217 4.5541,-2.38812 8.35837,-5.63703 11.41295,-9.74682 3.05458,-4.1098 5.38713,-8.885971 6.99772,-14.328671 1.6106,-5.4427 2.41588,-11.163003 2.41588,-17.161081 0,-6.442379 -0.83305,-12.38483 -2.49918,-17.82753 -1.66614,-5.4427 -4.08199,-10.163338 -7.24764,-14.162056 -3.16566,-3.998719 -6.9977,-7.108786 -11.49626,-9.330296 -4.49856,-2.221511 -9.58019,-3.332249 -15.24504,-3.332249 -4.33194,0 -8.35837,0.638675 -12.0794,1.916043 -3.72103,1.277368 -7.02548,3.082318 -9.91344,5.414904 -2.88796,2.332586 -5.38712,5.081663 -7.49756,8.247315 -2.11043,3.165652 -3.721,6.63671 -4.83176,10.413277 H 160.781 v -23.99219 h -3.33225 V 148.28506 Z m 34.65538,-30.65668 c -10.4411,0 -18.82717,-3.58213 -25.15848,-10.74651 -6.3313,-7.164366 -9.4969,-17.466465 -9.4969,-30.906602 0,-5.553775 0.77751,-10.829783 2.33257,-15.82818 1.55506,-4.998398 3.8043,-9.385815 6.7478,-13.162383 2.9435,-3.776567 6.58117,-6.775561 10.91312,-8.997071 4.33194,-2.22151 9.21919,-3.332248 14.66189,-3.332248 5.55378,0 10.41326,1.110738 14.57859,3.332248 4.16533,2.22151 7.60862,5.248273 10.32997,9.080378 2.72135,3.832105 4.77622,8.219522 6.16466,13.162382 1.38844,4.94286 2.08266,10.191099 2.08266,15.744874 0,4.998398 -0.63868,9.968953 -1.91605,14.911813 -1.27737,4.94286 -3.24893,9.385819 -5.91474,13.328999 -2.66581,3.94318 -6.08133,7.16432 -10.24666,9.66352 -4.16534,2.49919 -9.19143,3.74878 -15.07843,3.74878 z m 54.81549,1.3329 V 70.477058 c 0,-4.665171 0.66644,-9.219199 1.99935,-13.662219 1.33291,-4.44302 3.38777,-8.358373 6.16466,-11.746176 2.77689,-3.387803 6.30348,-6.053576 10.57989,-7.997397 4.27641,-1.943822 9.35804,-2.749107 15.24504,-2.41588 v -3.332249 c -5.10948,-0.111076 -9.5802,0.444294 -13.4123,1.666124 -3.83211,1.221831 -7.13656,2.887939 -9.91344,4.998373 -2.77689,2.110435 -4.99837,4.581828 -6.6645,7.414253 -1.66613,2.832426 -2.88795,5.859188 -3.66547,9.080378 h -0.33323 V 33.322486 h -3.33225 v 85.638794 z m 38.15425,-42.152949 h 71.64334 c 0.22215,-5.887002 -0.36098,-11.551768 -1.74943,-16.994468 -1.38844,-5.4427 -3.60992,-10.274412 -6.66449,-14.495282 -3.05458,-4.220869 -6.9977,-7.608621 -11.82949,-10.163358 -4.83178,-2.554737 -10.57985,-3.832086 -17.24438,-3.832086 -4.77625,0 -9.44135,0.999665 -13.99545,2.999024 -4.55409,1.999359 -8.55275,4.915047 -11.99609,8.747152 -3.44334,3.832105 -6.22019,8.524975 -8.33062,14.078751 -2.11044,5.553775 -3.16564,11.884984 -3.16564,18.993817 0,6.331304 0.72198,12.245986 2.16596,17.744224 1.44398,5.498237 3.66546,10.274415 6.6645,14.328665 2.99904,4.05426 6.85885,7.1921 11.57956,9.41361 4.72071,2.22151 10.41325,3.27671 17.07778,3.16563 9.77464,0 17.99411,-2.74908 24.65864,-8.24731 6.66453,-5.49824 10.60765,-13.245641 11.82948,-23.242437 h -3.33225 c -1.44398,9.441418 -5.13719,16.522377 -11.07973,21.243087 -5.94254,4.72071 -13.41225,7.08103 -22.40937,7.08103 -6.10915,0 -11.27409,-1.0552 -15.49495,-3.16564 -4.22087,-2.11043 -7.66416,-4.99836 -10.32998,-8.66385 -2.66581,-3.66549 -4.63737,-7.9696 -5.91474,-12.91246 -1.27737,-4.94286 -1.97158,-10.302173 -2.08265,-16.078099 z m 68.31109,-3.332249 h -68.31109 c 0.33322,-5.998077 1.44396,-11.385159 3.33225,-16.161406 1.88828,-4.776247 4.35967,-8.85821 7.41425,-12.246013 3.05458,-3.387803 6.60894,-5.97027 10.6632,-7.747478 4.05425,-1.777209 8.4139,-2.665799 13.07907,-2.665799 5.55378,0 10.44103,1.027433 14.66189,3.08233 4.22087,2.054897 7.74747,4.859511 10.57989,8.413927 2.83243,3.554417 4.9706,7.691917 6.41458,12.412626 1.44398,4.72071 2.16596,9.691264 2.16596,14.911813 z m 72.47641,-14.828506 h 3.33225 c 0,-9.552494 -2.77685,-16.494609 -8.33062,-20.826554 -5.55378,-4.331945 -13.1068,-6.497885 -22.65929,-6.497885 -5.33163,0 -9.83012,0.666443 -13.49561,1.999349 -3.66549,1.332906 -6.66448,3.054551 -8.99707,5.164986 -2.33259,2.110434 -3.99869,4.442985 -4.99837,6.997722 -0.99968,2.554736 -1.49951,4.998361 -1.49951,7.330947 0,4.665171 0.83305,8.386145 2.49918,11.163032 1.66613,2.776888 4.27637,4.942828 7.83079,6.497885 2.44366,1.110755 5.2205,2.11042 8.33062,2.999024 3.11011,0.888604 6.72001,1.832732 10.82981,2.832411 3.66549,0.888604 7.27539,1.777195 10.8298,2.665799 3.55442,0.888604 6.69226,2.082648 9.41361,3.582167 2.72135,1.49952 4.94282,3.415544 6.66449,5.748129 1.72167,2.332586 2.5825,5.387117 2.5825,9.163684 0,3.665488 -0.86083,6.775558 -2.5825,9.330298 -1.72167,2.55474 -3.91538,4.63737 -6.58119,6.24796 -2.66581,1.6106 -5.63704,2.77687 -8.91376,3.49887 -3.27673,0.72199 -6.4701,1.08298 -9.58022,1.08298 -10.10787,0 -17.85527,-2.24925 -23.24243,-6.74781 -5.38716,-4.49856 -8.0807,-11.579513 -8.0807,-21.243082 h -3.33225 c 0,10.774322 2.91569,18.660572 8.74715,23.658962 5.83146,4.9984 14.46745,7.49756 25.90823,7.49756 3.66549,0 7.3587,-0.41653 11.07973,-1.24959 3.72103,-0.83307 7.05324,-2.19372 9.99674,-4.08201 2.94351,-1.88828 5.33159,-4.3319 7.16434,-7.33094 1.83275,-2.99904 2.7491,-6.66448 2.7491,-10.996423 0,-4.109794 -0.80528,-7.442009 -2.41588,-9.996746 -1.61059,-2.554736 -3.72099,-4.665139 -6.33127,-6.331272 -2.61027,-1.666133 -5.55373,-2.97125 -8.83046,-3.915392 -3.27672,-0.944142 -6.58117,-1.860501 -9.91344,-2.749105 -4.66517,-1.221831 -8.74713,-2.277032 -12.24601,-3.165636 -3.49888,-0.888605 -6.74779,-1.943806 -9.74683,-3.165637 -2.88796,-1.22183 -5.19274,-2.971243 -6.91441,-5.248291 -1.72167,-2.277048 -2.5825,-5.525958 -2.5825,-9.746827 0,-0.777529 0.22215,-2.165952 0.66645,-4.165311 0.44431,-1.999359 1.49951,-4.026457 3.16564,-6.081354 1.66613,-2.054897 4.22083,-3.887615 7.66417,-5.49821 3.44334,-1.610595 8.16398,-2.41588 14.16206,-2.41588 4.10979,0 7.85853,0.444295 11.24634,1.332899 3.3878,0.888604 6.30349,2.304796 8.74715,4.248617 2.44366,1.943821 4.33192,4.415214 5.66482,7.414253 1.33291,2.999039 1.99935,6.664476 1.99935,10.996421 z m 77.14156,0 h 3.33225 c 0,-9.552494 -2.77685,-16.494609 -8.33063,-20.826554 -5.55377,-4.331945 -13.10679,-6.497885 -22.65929,-6.497885 -5.33162,0 -9.83011,0.666443 -13.4956,1.999349 -3.66549,1.332906 -6.66449,3.054551 -8.99707,5.164986 -2.33259,2.110434 -3.9987,4.442985 -4.99838,6.997722 -0.99968,2.554736 -1.49951,4.998361 -1.49951,7.330947 0,4.665171 0.83305,8.386145 2.49919,11.163032 1.66613,2.776888 4.27637,4.942828 7.83078,6.497885 2.44366,1.110755 5.22051,2.11042 8.33062,2.999024 3.11012,0.888604 6.72002,1.832732 10.82981,2.832411 3.66549,0.888604 7.27539,1.777195 10.82981,2.665799 3.55442,0.888604 6.69225,2.082648 9.4136,3.582167 2.72135,1.49952 4.94283,3.415544 6.6645,5.748129 1.72167,2.332586 2.58249,5.387117 2.58249,9.163684 0,3.665488 -0.86082,6.775558 -2.58249,9.330298 -1.72167,2.55474 -3.91538,4.63737 -6.58119,6.24796 -2.66581,1.6106 -5.63704,2.77687 -8.91377,3.49887 -3.27672,0.72199 -6.4701,1.08298 -9.58021,1.08298 -10.10787,0 -17.85527,-2.24925 -23.24244,-6.74781 -5.38716,-4.49856 -8.0807,-11.579513 -8.0807,-21.243082 h -3.33225 c 0,10.774322 2.91569,18.660572 8.74715,23.658962 5.83147,4.9984 14.46746,7.49756 25.90824,7.49756 3.66549,0 7.35869,-0.41653 11.07972,-1.24959 3.72103,-0.83307 7.05325,-2.19372 9.99675,-4.08201 2.9435,-1.88828 5.33159,-4.3319 7.16433,-7.33094 C 511.08364,105.13243 512,101.46699 512,97.135047 c 0,-4.109794 -0.80529,-7.442009 -2.41588,-9.996746 -1.6106,-2.554736 -3.721,-4.665139 -6.33127,-6.331272 -2.61028,-1.666133 -5.55373,-2.97125 -8.83046,-3.915392 -3.27673,-0.944142 -6.58118,-1.860501 -9.91344,-2.749105 -4.66517,-1.221831 -8.74714,-2.277032 -12.24601,-3.165636 -3.49888,-0.888605 -6.74779,-1.943806 -9.74683,-3.165637 -2.88797,-1.22183 -5.19275,-2.971243 -6.91442,-5.248291 -1.72167,-2.277048 -2.58249,-5.525958 -2.58249,-9.746827 0,-0.777529 0.22215,-2.165952 0.66645,-4.165311 0.4443,-1.999359 1.4995,-4.026457 3.16564,-6.081354 1.66613,-2.054897 4.22083,-3.887615 7.66417,-5.49821 3.44334,-1.610595 8.16398,-2.41588 14.16205,-2.41588 4.1098,0 7.85854,0.444295 11.24634,1.332899 3.38781,0.888604 6.30349,2.304796 8.74716,4.248617 2.44366,1.943821 4.33191,4.415214 5.66482,7.414253 1.3329,2.999039 1.99935,6.664476 1.99935,10.996421 z"
           fill="currentColor"
           id="path1-8" />
      </g>
    </g>
  </g>
</svg>
