<?xml version="1.0" encoding="UTF-8" standalone="no"?>
<!-- Created with Inkscape (http://www.inkscape.org/) -->

<svg
   width="12.732668mm"
   height="142.2442mm"
   viewBox="0 0 15.915835 177.80525"
   version="1.1"
   id="svg1"
   xmlns="http://www.w3.org/2000/svg"
   xmlns:svg="http://www.w3.org/2000/svg">
  <defs
     id="defs1" />
  <g
     id="layer2"
     transform="translate(-19.891498,-13.432417)">
    <path
       fill-rule="nonzero"
       fill="currentColor"
       fill-opacity="1"
       d="M 34.252326,95.104757 34.252116,65.840119 23.89445,55.882571 V 30.793997 l 3.577434,-9.436104 4.48e-4,-4.28641 -0.401,0.0087 -4.48e-4,4.130735 -3.578434,9.377079 v 25.455304 l 10.358666,9.959262 9.2e-5,28.942704 -6.31818,9.318333 v 40.73073 l 7.861804,11.85034 5e-4,11.454 -7.8625,8.78333 1.96e-4,8.76643 h 0.401119 V 177.306 l 7.862185,-8.907 0.011,-11.688 -7.873185,-11.81734 v -40.46835 l 6.318179,-9.320553"
       id="path204-4-4-8" />
    <path
       fill-rule="nonzero"
       fill="currentColor"
       fill-opacity="1"
       d="m 27.730694,186.96863 c 0.884593,0 1.603626,0.69467 1.603626,1.55073 0,0.85954 -0.719033,1.5507 -1.603626,1.5507 -0.88822,0 -1.604835,-0.69116 -1.604835,-1.5507 0,-0.85606 0.716615,-1.55073 1.604835,-1.55073"
       id="path209-2-9-6"
       style="display:inline;fill-opacity:1;stroke-width:0.304335" />
    <path
       fill-rule="nonzero"
       fill="currentColor"
       fill-opacity="1"
       d="m 27.710056,185.9947 c 1.441456,0 2.613133,1.12953 2.613133,2.52151 0,1.39762 -1.171677,2.52145 -2.613133,2.52145 -1.447369,0 -2.615101,-1.12383 -2.615101,-2.52145 0,-1.39198 1.167732,-2.52151 2.615101,-2.52151"
       id="path209-2-9-1-5"
       style="display:inline;fill:none;stroke:currentColor;stroke-width:0.4;stroke-dasharray:none;stroke-opacity:1" />
    <path
       fill-rule="nonzero"
       fill="currentColor"
       fill-opacity="1"
       d="m 23.654529,54.99445 c 0.552954,0 1.002418,0.448705 1.002418,1.001664 0,0.555203 -0.449464,1.001646 -1.002418,1.001646 -0.555221,0 -1.003173,-0.446443 -1.003173,-1.001646 0,-0.552959 0.447952,-1.001664 1.003173,-1.001664"
       id="path209-2-8"
       style="display:inline;fill-opacity:1;stroke-width:0.193383" />
    <path
       fill-rule="nonzero"
       fill="currentColor"
       fill-opacity="1"
       d="m 24.565136,121.24063 c 0.552954,0 1.002418,0.44871 1.002418,1.00166 0,0.55521 -0.449464,1.00165 -1.002418,1.00165 -0.555221,0 -1.003173,-0.44644 -1.003173,-1.00165 0,-0.55295 0.447952,-1.00166 1.003173,-1.00166"
       id="path209-2-8-3"
       style="display:inline;fill:none;fill-opacity:1;stroke:currentColor;stroke-width:0.06875;stroke-dasharray:none;stroke-opacity:1" />
    <path
       fill-rule="nonzero"
       fill="currentColor"
       fill-opacity="1"
       d="m 24.564672,123.88647 c 0.552954,0 1.002418,0.4487 1.002418,1.00166 0,0.5552 -0.449464,1.00165 -1.002418,1.00165 -0.555221,0 -1.003173,-0.44645 -1.003173,-1.00165 0,-0.55296 0.447952,-1.00166 1.003173,-1.00166"
       id="path209-2-8-3-1"
       style="display:inline;fill:none;fill-opacity:1;stroke:currentColor;stroke-width:0.06875;stroke-dasharray:none;stroke-opacity:1" />
    <path
       fill-rule="nonzero"
       fill="currentColor"
       fill-opacity="1"
       d="m 24.564672,126.53247 c 0.552954,0 1.002418,0.4487 1.002418,1.00166 0,0.5552 -0.449464,1.00165 -1.002418,1.00165 -0.555221,0 -1.003173,-0.44645 -1.003173,-1.00165 0,-0.55296 0.447952,-1.00166 1.003173,-1.00166"
       id="path209-2-8-3-1-1"
       style="display:inline;fill:none;fill-opacity:1;stroke:currentColor;stroke-width:0.06875;stroke-dasharray:none;stroke-opacity:1" />
    <path
       fill-rule="nonzero"
       fill="currentColor"
       fill-opacity="1"
       d="m 27.20103,13.632417 c 0.934063,0 1.693309,0.757965 1.693309,1.692037 0,0.937864 -0.759246,1.692006 -1.693309,1.692006 -0.937895,0 -1.694586,-0.754142 -1.694586,-1.692006 0,-0.934072 0.756691,-1.692037 1.694586,-1.692037"
       id="path209-2-8-6"
       style="display:inline;fill:none;stroke:currentColor;stroke-width:0.4;stroke-dasharray:none;stroke-opacity:1" />
    <path
       fill-rule="nonzero"
       fill="currentColor"
       fill-opacity="1"
       d="m 24.569845,117.29813 c 0.934063,0 1.693309,0.75797 1.693309,1.69204 0,0.93786 -0.759246,1.692 -1.693309,1.692 -0.937895,0 -1.694586,-0.75414 -1.694586,-1.692 0,-0.93407 0.756691,-1.69204 1.694586,-1.69204"
       id="path209-2-8-6-1"
       style="display:inline;fill:none;stroke:currentColor;stroke-width:0.1625;stroke-dasharray:none;stroke-opacity:1" />
    <path
       fill-rule="nonzero"
       fill="currentColor"
       fill-opacity="1"
       d="m 27.792234,103.58438 c 0.552954,0 1.002418,0.4487 1.002418,1.00166 0,0.5552 -0.449464,1.00165 -1.002418,1.00165 -0.555221,0 -1.003173,-0.44645 -1.003173,-1.00165 0,-0.55296 0.447952,-1.00166 1.003173,-1.00166"
       id="path209-2-8-1"
       style="display:inline;fill-opacity:1;stroke-width:0.193383" />
    <path
       style="fill:currentColor;fill-opacity:1;fill-rule:nonzero;stroke:none;stroke-width:0.2;stroke-linecap:square;stroke-linejoin:bevel;stroke-miterlimit:0.6;stroke-dasharray:none;stroke-opacity:1;paint-order:markers fill stroke"
       d="m 24.17332,55.351389 -4.281822,4.28884 0.186728,0.407318 4.351151,-4.366911 z"
       id="path8-0-8" />
    <path
       style="fill:currentColor;fill-opacity:1;fill-rule:nonzero;stroke:none;stroke-width:0.2;stroke-linecap:square;stroke-linejoin:bevel;stroke-miterlimit:0.6;stroke-dasharray:none;stroke-opacity:1;paint-order:markers fill stroke"
       d="m 32.195362,109.07428 -4.281822,-4.28884 0.186728,-0.40732 4.351151,4.36691 z"
       id="path8-0-8-9" />
    <path
       fill-rule="nonzero"
       fill="currentColor"
       fill-opacity="1"
       d="m 27.679315,143.53245 c 0.552954,0 1.002418,0.4487 1.002418,1.00166 0,0.5552 -0.449464,1.00165 -1.002418,1.00165 -0.555221,0 -1.003173,-0.44645 -1.003173,-1.00165 0,-0.55296 0.447952,-1.00166 1.003173,-1.00166"
       id="path209-2-8-1-7"
       style="display:inline;fill-opacity:1;stroke-width:0.193383" />
    <path
       style="fill:currentColor;fill-opacity:1;fill-rule:nonzero;stroke:none;stroke-width:0.2;stroke-linecap:square;stroke-linejoin:bevel;stroke-miterlimit:0.6;stroke-dasharray:none;stroke-opacity:1;paint-order:markers fill stroke"
       d="m 27.14558,144.84515 -4.810989,5.34718 0.186728,0.40732 4.880318,-5.42525 z"
       id="path8-0-8-9-5" />
    <path
       style="fill:currentColor;fill-opacity:1;fill-rule:nonzero;stroke:none;stroke-width:0.25;stroke-linecap:square;stroke-linejoin:bevel;stroke-miterlimit:0.6;stroke-dasharray:none;stroke-opacity:1;paint-order:markers fill stroke"
       d="m 32.411269,18.251185 -2.783103,-2.76937 H 28.83103 l 0.187269,-0.34375 h 0.734735 l 2.913882,2.90875 z"
       id="path8-0-8-9-0" />
    <path
       fill-rule="nonzero"
       fill="currentColor"
       fill-opacity="1"
       d="m 26.385864,33.762537 v -1.959304 h -1.959291 v 1.959304 z M 26.487415,31.7 v 2.166325 H 24.323327 V 31.7 h 2.164088"
       id="path286"
       style="stroke:none;stroke-width:0;stroke-dasharray:none;stroke-opacity:1" />
    <path
       fill-rule="nonzero"
       fill="currentColor"
       fill-opacity="1"
       d="m 25.450209,35.656546 v -1.070953 h -1.070945 v 1.070953 z m 0.05551,-1.127379 v 1.184109 h -1.182887 v -1.184109 h 1.182887"
       id="path286-9"
       style="stroke-width:0.078433;stroke-dasharray:none" />
    <path
       fill-rule="nonzero"
       fill="currentColor"
       fill-opacity="1"
       d="M 25.450209,37.485713 V 36.41476 h -1.070945 v 1.070953 z m 0.05551,-1.127379 v 1.184109 h -1.182887 v -1.184109 h 1.182887"
       id="path286-9-2"
       style="stroke-width:0.078433;stroke-dasharray:none" />
    <path
       fill-rule="nonzero"
       fill="currentColor"
       fill-opacity="1"
       d="m 25.4456,39.31488 v -1.070953 h -1.070945 v 1.070953 z m 0.05551,-1.127379 v 1.184109 h -1.182887 v -1.184109 h 1.182887"
       id="path286-9-2-0"
       style="stroke-width:0.078433;stroke-dasharray:none" />
  </g>
</svg>
