<?xml version="1.0" encoding="UTF-8" standalone="no"?>
<!-- Created with Inkscape (http://www.inkscape.org/) -->

<svg
   width="16.820097"
   height="18.771155"
   viewBox="0 0 13.720097 15.99800"
   version="1.1"
   id="svg1"
   xmlns="http://www.w3.org/2000/svg"
   xmlns:svg="http://www.w3.org/2000/svg">
  <defs
     id="defs1" />
  <g
     id="layer1"
     transform="translate(-1.2696258,-0.13373868)">
    <g
       id="layer1-6"
       transform="matrix(0.07979729,0,0,0.07979729,-3.6152279,-0.22914961)">
      <path
         style="display:inline;fill:#ffffff;fill-opacity:1;stroke-width:2.41296"
         d="m 147.40917,19.416777 -72.900795,42.421046 0.128336,84.290967 c 10.200007,7.50741 19.107711,11.09385 24.771982,12.66658 5.664307,1.57274 11.437007,0.76275 11.475287,-12.80331 0.0639,-22.62592 0.14343,-80.141661 0.14343,-80.141661 h 14.83251 l -0.66706,92.102691 c -0.0311,4.29763 -5.26389,9.56537 -10.46266,12.45515 -6.39318,3.55371 -14.4398,3.55044 -20.613481,0.68084 -33.689584,-15.65932 -32.944196,-16.79879 -32.891513,-34.0743 l 0.03532,-72.040242 c 0.09746,-6.768736 0.566221,-10.569602 4.474601,-15.623826 L 142.04267,5.8889718 c 0,0 1.51628,-1.1809022 5.33057,-1.3307397 3.68277,-0.1446711 6.03709,1.2386134 6.03709,1.2386134 l 75.58362,43.6972705 c 4.85446,6.282485 5.36799,12.279999 5.41189,15.459476 l -0.0825,81.185758 c -0.24309,5.6734 -3.00651,8.10714 -5.35053,10.56748 l -76.70882,44.50369 c -3.61508,1.47734 -7.23008,1.27983 -10.84515,-0.59254 l -30.90343,-19.84329 16.92866,-4.6593 20.42324,12.83224 72.52774,-42.48201 0.25526,-84.903675 z"
         id="path8-1" />
      <path
         style="display:inline;fill:#ffffff;fill-opacity:1;stroke-width:2.41296"
         d="m 187.35955,92.743842 c 0,0 3.34667,-15.266178 -20.12044,-14.857882 -8.66769,0.150879 -21.32517,4.571005 -18.73223,12.116948 1.77117,5.154515 22.4461,6.009057 22.4461,6.009057 17.19809,2.967393 28.29445,3.444122 31.42366,14.269585 11.24436,38.89991 -71.22006,44.94461 -72.04487,4.09891 l 14.55821,0.89291 c 6.06352,23.63987 42.38447,15.69324 44.97141,6.05067 2.05156,-7.64703 -6.78095,-10.63688 -18.32953,-10.99285 -18.04984,-0.55611 -40.1224,-5.28803 -39.32255,-20.955068 1.81795,-35.608497 72.09788,-35.246194 71.11218,3.286157 z"
         id="path9-8" />
    </g>
  </g>
</svg>
