<?xml version="1.0" encoding="UTF-8" standalone="no"?>
<!-- Created with Inkscape (http://www.inkscape.org/) -->

<svg
   width="79.769196mm"
   height="79.769005mm"
   viewBox="0 0 79.769196 79.769005"
   version="1.1"
   id="svg1"
   xmlns="http://www.w3.org/2000/svg"
   xmlns:svg="http://www.w3.org/2000/svg">
  <defs
     id="defs1" />
  <g
     id="layer1"
     transform="translate(-11.37543,-11.366517)">
    <path
       d="M 65.853822,78.193314 A 31.572105,31.572105 0 0 0 78.988828,35.519575 31.572105,31.572105 0 0 0 36.314895,22.384202 31.572105,31.572105 0 0 0 19.942314,45.091928 l 3.893634,-2.060842 A 28.061114,28.061114 0 0 1 37.826445,25.447283 28.061114,28.061114 0 0 1 75.754738,37.121638 28.061114,28.061114 0 0 1 64.080383,75.04993 28.061114,28.061114 0 0 1 41.606871,76.707385 l -4.015577,2.125385 a 31.572105,31.572105 0 0 0 28.262528,-0.639456 z"
       style="display:none;fill:currentColor;stroke-width:4.27331;stroke-linecap:square;stroke-linejoin:bevel;stroke-miterlimit:0.6;paint-order:markers fill stroke"
       id="path3-1" />
    <path
       d="m 22.916312,23.190316 a 39.884314,39.884314 0 0 0 0.282359,56.403956 39.884314,39.884314 0 0 0 56.404332,-0.281989 39.884314,39.884314 0 0 0 11.161121,-33.557641 l -3.915458,3.95486 A 35.448962,35.448962 0 0 1 76.623989,76.190603 35.448962,35.448962 0 0 1 26.492315,76.441567 35.448962,35.448962 0 0 1 26.241357,26.309894 35.448962,35.448962 0 0 1 52.707233,15.824239 l 4.038088,-4.078724 A 39.884314,39.884314 0 0 0 22.916312,23.190316 Z"
       style="display:inline;fill:currentColor;stroke-width:5.39838;stroke-linecap:square;stroke-linejoin:bevel;stroke-miterlimit:0.6;paint-order:markers fill stroke"
       id="path3-1-5" />
    <path
       d="m 29.212009,42.366949 a 22.807433,22.807433 0 0 0 13.38991,29.343795 22.807433,22.807433 0 0 0 29.344076,-13.389808 22.807433,22.807433 0 0 0 -2.05914,-20.118027 l -1.11306,2.981422 A 20.271121,20.271121 0 0 1 69.659765,57.392654 20.271121,20.271121 0 0 1 43.579087,69.29357 20.271121,20.271121 0 0 1 31.678176,43.212891 20.271121,20.271121 0 0 1 43.016129,31.531739 L 44.16405,28.456943 A 22.807433,22.807433 0 0 0 29.212009,42.366949 Z"
       style="display:none;fill:currentColor;stroke-width:3.087;stroke-linecap:square;stroke-linejoin:bevel;stroke-miterlimit:0.6;paint-order:markers fill stroke"
       id="path3-1-9" />
  </g>
</svg>
