<?xml version="1.0" encoding="UTF-8" standalone="no"?>
<!-- Created with Inkscape (http://www.inkscape.org/) -->

<svg
   width="62.714043mm"
   height="63.144455mm"
   viewBox="0 0 62.714043 63.144455"
   version="1.1"
   id="svg1"
   xmlns="http://www.w3.org/2000/svg"
   xmlns:svg="http://www.w3.org/2000/svg">
  <defs
     id="defs1" />
  <g
     id="layer1"
     transform="translate(-19.942313,-18.716675)">
    <path
       d="M 50.39781,10.888681 A 39.379181,39.379181 0 0 0 11.018818,50.267673 39.379181,39.379181 0 0 0 50.39781,89.647181 39.379181,39.379181 0 0 0 81.696158,74.167506 H 76.201403 A 35,35 0 0 1 50.518733,85.388527 35,35 0 0 1 15.518802,50.388596 35,35 0 0 1 50.518733,15.388665 35,35 0 0 1 76.260314,26.674281 h 5.666838 A 39.379181,39.379181 0 0 0 50.39781,10.888681 Z"
       style="display:none;fill:currentColor;stroke-width:5.33;stroke-linecap:square;stroke-linejoin:bevel;stroke-miterlimit:0.6;paint-order:markers fill stroke"
       id="path3" />
    <path
       d="M 65.853822,78.193314 A 31.572105,31.572105 0 0 0 78.988828,35.519575 31.572105,31.572105 0 0 0 36.314895,22.384202 31.572105,31.572105 0 0 0 19.942314,45.091928 l 3.893634,-2.060842 A 28.061114,28.061114 0 0 1 37.826445,25.447283 28.061114,28.061114 0 0 1 75.754738,37.121638 28.061114,28.061114 0 0 1 64.080383,75.04993 28.061114,28.061114 0 0 1 41.606871,76.707385 l -4.015577,2.125385 a 31.572105,31.572105 0 0 0 28.262528,-0.639456 z"
       style="display:inline;fill:currentColor;stroke-width:4.27331;stroke-linecap:square;stroke-linejoin:bevel;stroke-miterlimit:0.6;paint-order:markers fill stroke"
       id="path3-1" />
    <path
       d="m 29.212009,42.366949 a 22.807433,22.807433 0 0 0 13.38991,29.343795 22.807433,22.807433 0 0 0 29.344076,-13.389808 22.807433,22.807433 0 0 0 -2.05914,-20.118027 l -1.11306,2.981422 A 20.271121,20.271121 0 0 1 69.659765,57.392654 20.271121,20.271121 0 0 1 43.579087,69.29357 20.271121,20.271121 0 0 1 31.678176,43.212891 20.271121,20.271121 0 0 1 43.016129,31.531739 L 44.16405,28.456943 A 22.807433,22.807433 0 0 0 29.212009,42.366949 Z"
       style="display:none;stroke-width:3.087;stroke-linecap:square;stroke-linejoin:bevel;stroke-miterlimit:0.6;paint-order:markers fill stroke"
       id="path3-1-9" />
  </g>
</svg>
