<?xml version="1.0" encoding="UTF-8" standalone="no"?>
<!-- Created with Inkscape (http://www.inkscape.org/) -->

<svg
   width="46.197559mm"
   height="46.197456mm"
   viewBox="0 0 46.197559 46.197456"
   version="1.1"
   id="svg1"
   xmlns="http://www.w3.org/2000/svg"
   xmlns:svg="http://www.w3.org/2000/svg">
  <defs
     id="defs1" />
  <g
     id="layer1"
     transform="translate(-26.691513,-26.034)">
    <path
       d="M 65.853822,78.193314 A 31.572105,31.572105 0 0 0 78.988828,35.519575 31.572105,31.572105 0 0 0 36.314895,22.384202 31.572105,31.572105 0 0 0 19.942314,45.091928 l 3.893634,-2.060842 A 28.061114,28.061114 0 0 1 37.826445,25.447283 28.061114,28.061114 0 0 1 75.754738,37.121638 28.061114,28.061114 0 0 1 64.080383,75.04993 28.061114,28.061114 0 0 1 41.606871,76.707385 l -4.015577,2.125385 a 31.572105,31.572105 0 0 0 28.262528,-0.639456 z"
       style="display:none;fill:currentColor;stroke-width:4.27331;stroke-linecap:square;stroke-linejoin:bevel;stroke-miterlimit:0.6;paint-order:markers fill stroke"
       id="path3-1" />
    <path
       d="M 32.972806,33.907463 A 22.841349,22.841349 0 0 0 33.815128,66.198868 22.841349,22.841349 0 0 0 66.106755,65.35675 22.841349,22.841349 0 0 0 72.092241,46.008204 L 69.898119,48.31986 A 20.301267,20.301267 0 0 1 64.36341,63.605342 20.301267,20.301267 0 0 1 35.662903,64.353997 20.301267,20.301267 0 0 1 34.91425,35.653492 20.301267,20.301267 0 0 1 49.941093,29.330417 l 2.262839,-2.384053 a 22.841349,22.841349 0 0 0 -19.231126,6.961099 z"
       style="display:none;fill:currentColor;stroke-width:3.09159;stroke-linecap:square;stroke-linejoin:bevel;stroke-miterlimit:0.6;paint-order:markers fill stroke"
       id="path3-1-6" />
    <path
       d="m 22.916312,23.190316 a 39.884314,39.884314 0 0 0 0.282359,56.403956 39.884314,39.884314 0 0 0 56.404332,-0.281989 39.884314,39.884314 0 0 0 11.161121,-33.557641 l -3.915458,3.95486 A 35.448962,35.448962 0 0 1 76.623989,76.190603 35.448962,35.448962 0 0 1 26.492315,76.441567 35.448962,35.448962 0 0 1 26.241357,26.309894 35.448962,35.448962 0 0 1 52.707233,15.824239 l 4.038088,-4.078724 A 39.884314,39.884314 0 0 0 22.916312,23.190316 Z"
       style="display:none;fill:currentColor;stroke-width:5.39838;stroke-linecap:square;stroke-linejoin:bevel;stroke-miterlimit:0.6;paint-order:markers fill stroke"
       id="path3-1-5" />
    <path
       d="m 32.88557,33.391694 a 23.098619,23.098619 0 0 0 1.163305,32.645502 23.098619,23.098619 0 0 0 32.645726,-1.163101 23.098619,23.098619 0 0 0 5.865961,-19.623331 l -2.196431,2.358755 A 20.529925,20.529925 0 0 1 64.914806,63.119857 20.529925,20.529925 0 0 1 35.899579,64.153806 20.529925,20.529925 0 0 1 34.865637,35.13858 20.529925,20.529925 0 0 1 50.000035,28.599605 l 2.265222,-2.432628 A 23.098619,23.098619 0 0 0 32.88557,33.391694 Z"
       style="display:inline;fill:currentColor;stroke-width:3.12641;stroke-linecap:square;stroke-linejoin:bevel;stroke-miterlimit:0.6;paint-order:markers fill stroke"
       id="path3-1-9" />
  </g>
</svg>
